name rise44.8762peak52.3436fall86.788.mot
datacolumns 19
datarows 18
range 23.76490400000000 23.79323800000000
endheader
time	ground_force1_vx	ground_force1_vy	ground_force1_vz	ground_force1_px	ground_force1_py	ground_force1_pz	ground_force2_vx	ground_force2_vy	ground_force2_vz	ground_force2_px	ground_force2_py	ground_force2_pz	ground_torque1_x	ground_torque1_y	ground_torque1_z	ground_torque2_x	ground_torque2_y	ground_torque2_z	
23.76490400000000	52.94601100000000	758.04217200000005	63.49674500000000	0.29567200000000	0.00000000000000	0.11826900000000	0.00000000000000	0.00000000000000	0.00000000000000	0.00000000000000	0.00000000000000	0.00000000000000	0.00000000000000	24.47401500000000	0.00000000000000	0.00000000000000	0.00000000000000	0.00000000000000	
23.76657100000000	52.39471200000000	761.57325200000002	63.65232200000000	0.29460400000000	0.00000000000000	0.11826900000000	0.00000000000000	0.00000000000000	0.00000000000000	0.00000000000000	0.00000000000000	0.00000000000000	0.00000000000000	24.51399500000000	0.00000000000000	0.00000000000000	0.00000000000000	0.00000000000000	
23.76823700000000	51.84479300000000	765.00181899999995	63.81293700000000	0.29357900000000	0.00000000000000	0.11826800000000	0.00000000000000	0.00000000000000	0.00000000000000	0.00000000000000	0.00000000000000	0.00000000000000	0.00000000000000	24.55994200000000	0.00000000000000	0.00000000000000	0.00000000000000	0.00000000000000	
23.76991200000000	51.29656400000000	768.32358799999997	63.97817900000000	0.29259600000000	0.00000000000000	0.11826800000000	0.00000000000000	0.00000000000000	0.00000000000000	0.00000000000000	0.00000000000000	0.00000000000000	0.00000000000000	24.61157900000000	0.00000000000000	0.00000000000000	0.00000000000000	0.00000000000000	
23.77157100000000	50.75024900000000	771.53429800000004	64.14753399999999	0.29165300000000	0.00000000000000	0.11826700000000	0.00000000000000	0.00000000000000	0.00000000000000	0.00000000000000	0.00000000000000	0.00000000000000	0.00000000000000	24.66856800000000	0.00000000000000	0.00000000000000	0.00000000000000	0.00000000000000	
23.77324000000000	50.20599500000000	774.62973000000000	64.32038900000001	0.29074800000000	0.00000000000000	0.11826600000000	0.00000000000000	0.00000000000000	0.00000000000000	0.00000000000000	0.00000000000000	0.00000000000000	0.00000000000000	24.73051400000000	0.00000000000000	0.00000000000000	0.00000000000000	0.00000000000000	
23.77490400000000	49.66386900000000	777.60573899999997	64.49603999999999	0.28988000000000	0.00000000000000	0.11826500000000	0.00000000000000	0.00000000000000	0.00000000000000	0.00000000000000	0.00000000000000	0.00000000000000	0.00000000000000	24.79697000000000	0.00000000000000	0.00000000000000	0.00000000000000	0.00000000000000	
23.77657300000000	49.12386900000000	780.45826999999997	64.67370200000001	0.28904600000000	0.00000000000000	0.11826400000000	0.00000000000000	0.00000000000000	0.00000000000000	0.00000000000000	0.00000000000000	0.00000000000000	0.00000000000000	24.86743800000000	0.00000000000000	0.00000000000000	0.00000000000000	0.00000000000000	
23.77824500000000	48.58592300000000	783.18338500000004	64.85251300000000	0.28824500000000	0.00000000000000	0.11826300000000	0.00000000000000	0.00000000000000	0.00000000000000	0.00000000000000	0.00000000000000	0.00000000000000	0.00000000000000	24.94137900000000	0.00000000000000	0.00000000000000	0.00000000000000	0.00000000000000	
23.77990900000000	48.04990000000000	785.77728300000001	65.03154400000000	0.28747300000000	0.00000000000000	0.11826200000000	0.00000000000000	0.00000000000000	0.00000000000000	0.00000000000000	0.00000000000000	0.00000000000000	0.00000000000000	25.01821200000000	0.00000000000000	0.00000000000000	0.00000000000000	0.00000000000000	
23.78157100000000	47.51560700000000	788.23632199999997	65.20981000000000	0.28672800000000	0.00000000000000	0.11826200000000	0.00000000000000	0.00000000000000	0.00000000000000	0.00000000000000	0.00000000000000	0.00000000000000	0.00000000000000	25.09732000000000	0.00000000000000	0.00000000000000	0.00000000000000	0.00000000000000	
23.78324300000000	46.98280500000000	790.55704200000002	65.38627200000001	0.28600800000000	0.00000000000000	0.11826100000000	0.00000000000000	0.00000000000000	0.00000000000000	0.00000000000000	0.00000000000000	0.00000000000000	0.00000000000000	25.17805800000000	0.00000000000000	0.00000000000000	0.00000000000000	0.00000000000000	
23.78490900000000	46.45120400000000	792.73618099999999	65.55985500000000	0.28530900000000	0.00000000000000	0.11826100000000	0.00000000000000	0.00000000000000	0.00000000000000	0.00000000000000	0.00000000000000	0.00000000000000	0.00000000000000	25.25975300000000	0.00000000000000	0.00000000000000	0.00000000000000	0.00000000000000	
23.78657800000000	45.92047800000000	794.77069500000005	65.72944800000000	0.28462900000000	0.00000000000000	0.11826100000000	0.00000000000000	0.00000000000000	0.00000000000000	0.00000000000000	0.00000000000000	0.00000000000000	0.00000000000000	25.34171100000000	0.00000000000000	0.00000000000000	0.00000000000000	0.00000000000000	
23.78824400000000	45.39026500000000	796.65777700000001	65.89391999999999	0.28396500000000	0.00000000000000	0.11826100000000	0.00000000000000	0.00000000000000	0.00000000000000	0.00000000000000	0.00000000000000	0.00000000000000	0.00000000000000	25.42322400000000	0.00000000000000	0.00000000000000	0.00000000000000	0.00000000000000	
23.78991000000000	44.86017500000000	798.39487199999996	66.05212400000001	0.28331300000000	0.00000000000000	0.11826100000000	0.00000000000000	0.00000000000000	0.00000000000000	0.00000000000000	0.00000000000000	0.00000000000000	0.00000000000000	25.50357100000000	0.00000000000000	0.00000000000000	0.00000000000000	0.00000000000000	
23.79157600000000	44.32979700000000	799.97969000000001	66.20291000000000	0.28267000000000	0.00000000000000	0.11826100000000	0.00000000000000	0.00000000000000	0.00000000000000	0.00000000000000	0.00000000000000	0.00000000000000	0.00000000000000	25.58202600000000	0.00000000000000	0.00000000000000	0.00000000000000	0.00000000000000	
23.79323800000000	43.79870300000000	801.41022499999997	66.34513200000001	0.28203400000000	0.00000000000000	0.11826200000000	0.00000000000000	0.00000000000000	0.00000000000000	0.00000000000000	0.00000000000000	0.00000000000000	0.00000000000000	25.65786100000000	0.00000000000000	0.00000000000000	0.00000000000000	0.00000000000000	
